<?xml version="1.0" standalone="no"?>
<!DOCTYPE svg PUBLIC "-//W3C//DTD SVG 20010904//EN"
 "http://www.w3.org/TR/2001/REC-SVG-20010904/DTD/svg10.dtd">
<svg version="1.0" xmlns="http://www.w3.org/2000/svg"
 width="1322.000000pt" height="443.000000pt" viewBox="0 0 1322.000000 443.000000"
 preserveAspectRatio="xMidYMid meet">

<g transform="translate(0.000000,443.000000) scale(0.100000,-0.100000)"
fill="#000000" stroke="none">
<path d="M5230 3845 l0 -575 690 -345 689 -345 690 348 690 347 1 573 c0 314
-2 572 -5 572 -3 0 -509 -251 -1125 -559 -616 -307 -1120 -557 -1120 -556 0 2
160 117 355 256 l355 254 -602 302 c-332 166 -606 302 -610 302 -5 1 -8 -258
-8 -574z"/>
<path d="M2663 2065 c-144 -40 -272 -143 -336 -270 -130 -260 -35 -584 209
-712 110 -59 266 -78 410 -52 67 12 199 71 262 118 l42 31 0 225 0 225 -225 0
-225 0 0 -100 0 -100 115 0 116 0 -3 -72 -3 -72 -50 -25 c-44 -23 -62 -26
-150 -26 -89 0 -106 3 -151 27 -60 31 -109 84 -138 147 -32 71 -30 207 6 283
56 119 165 185 290 175 72 -6 141 -32 195 -73 19 -14 37 -24 42 -22 11 4 141
160 141 169 0 14 -117 84 -180 107 -83 31 -284 41 -367 17z"/>
<path d="M7033 2066 c-236 -58 -403 -271 -403 -516 0 -251 175 -469 418 -519
68 -14 186 -14 254 0 188 39 354 197 403 384 17 68 19 199 4 265 -41 177 -200
337 -384 385 -71 18 -219 18 -292 1z m274 -229 c158 -80 217 -273 135 -439
-54 -111 -136 -161 -262 -162 -94 -1 -162 27 -221 91 -159 172 -92 459 123
529 62 20 164 11 225 -19z"/>
<path d="M9242 2066 c-189 -46 -352 -214 -391 -404 -50 -239 66 -480 279 -584
89 -43 155 -58 255 -58 99 0 165 15 253 57 129 61 241 196 278 337 18 68 18
208 -1 281 -46 173 -199 322 -382 370 -69 18 -218 18 -291 1z m270 -226 c60
-28 119 -87 149 -148 20 -39 24 -63 24 -142 0 -110 -21 -166 -88 -233 -57 -57
-117 -81 -207 -81 -124 -1 -223 61 -277 172 -23 48 -27 70 -28 142 0 73 4 93
27 140 42 86 93 134 170 162 69 24 165 19 230 -12z"/>
<path d="M11783 2066 c-88 -22 -164 -66 -234 -135 -115 -115 -166 -250 -156
-416 9 -148 63 -264 171 -362 100 -92 216 -133 369 -132 148 1 275 51 367 144
l40 41 -74 73 -75 74 -37 -33 c-66 -57 -138 -85 -224 -85 -125 1 -215 58 -269
174 -37 81 -37 202 0 281 36 76 71 115 133 145 109 53 221 41 329 -35 32 -22
61 -40 65 -40 8 0 135 145 140 160 4 12 -88 83 -140 108 -104 50 -284 67 -405
38z"/>
<path d="M12684 2067 c-99 -26 -169 -81 -217 -171 -31 -59 -31 -203 0 -261 48
-90 121 -133 313 -185 183 -50 230 -88 199 -162 -16 -40 -61 -58 -142 -58 -86
0 -153 22 -233 76 -37 24 -71 41 -75 37 -4 -5 -35 -41 -69 -82 l-61 -74 28
-23 c125 -100 300 -154 460 -140 203 17 325 135 326 316 1 93 -22 149 -83 204
-53 48 -113 74 -260 116 -128 36 -184 61 -194 85 -13 34 -6 72 18 95 55 50
163 43 290 -21 43 -21 80 -39 82 -39 6 0 114 158 114 167 0 16 -122 83 -190
104 -82 26 -235 34 -306 16z"/>
<path d="M427 2038 c-94 -223 -412 -967 -419 -981 -8 -17 -1 -17 112 -15 l122
3 46 113 45 112 213 0 212 0 45 -112 45 -113 122 -3 c114 -2 122 -1 116 15 -4
10 -102 242 -219 516 l-211 497 -108 0 -108 0 -13 -32z m182 -403 c33 -83 61
-154 61 -158 0 -4 -56 -7 -125 -7 -69 0 -125 3 -125 7 0 8 124 312 126 310 1
-1 29 -70 63 -152z"/>
<path d="M1200 1550 l0 -510 115 0 115 0 2 316 3 317 240 -316 240 -316 103
-1 102 0 0 510 0 510 -115 0 -115 0 -2 -307 -3 -306 -233 306 -233 307 -110 0
-109 0 0 -510z"/>
<path d="M3420 1550 l0 -510 390 0 390 0 0 100 0 100 -280 0 -280 0 0 105 0
105 245 0 246 0 -3 103 -3 102 -242 3 -243 2 0 100 0 100 275 0 275 0 0 100 0
100 -385 0 -385 0 0 -510z"/>
<path d="M4350 1550 l0 -510 370 0 370 0 0 100 0 100 -255 0 -255 0 0 410 0
410 -115 0 -115 0 0 -510z"/>
<path d="M5660 1551 l0 -511 115 0 115 0 0 160 0 160 88 0 89 0 106 -160 107
-160 136 0 135 0 -116 170 c-63 93 -118 176 -121 183 -3 8 9 20 30 30 54 25
115 85 144 141 24 46 26 62 27 156 0 95 -3 110 -28 162 -33 67 -80 111 -157
147 -55 26 -55 26 -362 29 l-308 3 0 -510z m554 284 c73 -35 96 -144 43 -211
-35 -45 -73 -54 -227 -54 l-140 0 0 146 0 146 143 -4 c113 -3 150 -8 181 -23z"/>
<path d="M7870 1549 l0 -510 323 3 c309 3 324 4 379 26 68 28 141 95 160 150
7 20 13 71 13 113 -1 67 -4 82 -31 125 -20 34 -47 59 -87 83 l-57 34 40 37
c147 136 85 376 -112 435 -41 12 -111 15 -340 15 l-288 0 0 -511z m535 297
c39 -17 55 -42 55 -89 0 -81 -60 -107 -244 -107 l-116 0 0 105 0 105 135 0
c94 0 146 -4 170 -14z m61 -408 c63 -35 69 -129 11 -172 -26 -19 -44 -21 -203
-24 l-174 -4 0 112 0 112 168 -4 c134 -2 173 -7 198 -20z"/>
<path d="M10010 1955 l0 -105 155 0 155 0 0 -405 0 -405 115 0 115 0 0 405 0
405 155 0 155 0 0 105 0 105 -425 0 -425 0 0 -105z"/>
<path d="M11000 1550 l0 -510 115 0 115 0 0 510 0 510 -115 0 -115 0 0 -510z"/>
<path d="M1770 225 c0 -184 2 -215 15 -215 12 0 15 17 15 95 l0 95 58 0 57 0
50 -95 c39 -74 55 -95 71 -95 19 0 17 7 -28 95 l-49 94 30 16 c44 22 61 53 61
108 0 41 -5 53 -30 77 -35 33 -66 40 -171 40 l-79 0 0 -215z m221 156 c32 -25
33 -92 2 -122 -17 -17 -37 -22 -107 -26 l-86 -6 0 87 0 86 84 0 c67 0 88 -4
107 -19z"/>
<path d="M2311 423 c-67 -35 -76 -59 -76 -203 0 -149 9 -171 87 -204 62 -26
111 -16 159 33 31 31 38 46 44 95 11 82 -1 196 -23 225 -48 65 -128 87 -191
54z m126 -35 c36 -18 53 -68 53 -156 0 -104 -7 -137 -38 -167 -19 -20 -35 -25
-71 -25 -87 1 -111 40 -111 182 0 85 4 109 20 135 29 48 87 60 147 31z"/>
<path d="M2730 225 l0 -215 103 0 c119 0 145 10 171 64 16 32 17 44 7 76 -6
22 -23 48 -37 59 -23 18 -24 22 -10 27 22 9 46 56 46 93 0 40 -42 88 -88 101
-20 5 -72 10 -114 10 l-78 0 0 -215z m218 155 c28 -26 29 -79 3 -111 -17 -21
-29 -24 -105 -28 l-86 -3 0 81 0 81 83 0 c70 0 87 -3 105 -20z m-15 -182 c54
-28 63 -89 21 -132 -25 -24 -33 -26 -110 -26 l-84 0 0 85 0 85 76 0 c41 0 85
-5 97 -12z"/>
<path d="M3281 422 c-67 -34 -76 -58 -76 -202 0 -149 9 -171 87 -204 59 -24
108 -16 156 29 l37 33 0 140 c0 136 -1 141 -25 167 -49 54 -119 68 -179 37z
m127 -39 c35 -22 52 -73 52 -155 0 -137 -32 -188 -117 -188 -36 0 -50 6 -74
29 -29 29 -29 30 -29 149 0 105 2 122 21 146 35 44 95 52 147 19z"/>
<path d="M3650 420 c0 -18 6 -20 60 -20 l60 0 0 -195 c0 -188 1 -195 20 -195
19 0 20 7 20 195 l0 194 63 3 c47 2 62 7 62 18 0 13 -24 15 -142 18 -138 2
-143 2 -143 -18z"/>
<path d="M4107 433 c-4 -3 -7 -100 -7 -215 0 -201 1 -208 20 -208 19 0 20 7
20 215 0 173 -3 215 -13 215 -8 0 -17 -3 -20 -7z"/>
<path d="M4420 421 c-67 -35 -75 -57 -75 -199 0 -116 2 -130 23 -159 29 -41
98 -68 149 -58 44 8 113 72 113 104 0 26 -26 28 -35 2 -28 -88 -161 -97 -204
-14 -6 12 -11 68 -11 125 0 84 4 109 20 135 42 69 146 61 186 -13 22 -41 59
-49 44 -9 -36 94 -127 131 -210 86z"/>
<path d="M4873 425 c-40 -17 -65 -54 -66 -99 -2 -72 40 -108 143 -122 73 -10
105 -40 96 -92 -8 -52 -36 -72 -103 -72 -39 0 -66 6 -90 21 -27 17 -37 19 -46
10 -23 -23 64 -71 128 -71 40 0 98 22 120 46 28 30 36 66 24 109 -13 48 -41
67 -121 82 -82 15 -118 41 -118 84 0 71 89 109 164 70 38 -20 56 -20 56 0 0
16 -82 49 -120 48 -19 0 -49 -6 -67 -14z"/>
<path d="M5517 433 c-4 -3 -7 -100 -7 -215 0 -201 1 -208 20 -208 19 0 20 7
20 95 l0 95 95 0 c78 0 95 3 95 15 0 12 -17 15 -95 15 l-95 0 0 85 0 85 110 0
c103 0 110 1 110 20 0 19 -7 20 -123 20 -68 0 -127 -3 -130 -7z"/>
<path d="M6011 422 c-67 -34 -76 -58 -76 -202 0 -149 9 -171 87 -204 59 -24
108 -16 156 29 l37 33 3 135 c3 134 3 134 -24 167 -50 58 -120 75 -183 42z
m102 -26 c55 -23 69 -48 75 -130 10 -160 -23 -226 -113 -226 -38 0 -52 5 -76
29 -29 29 -29 30 -29 149 0 134 12 163 73 181 18 5 33 10 35 10 1 1 17 -5 35
-13z"/>
<path d="M6427 433 c-4 -3 -7 -100 -7 -215 0 -201 1 -208 20 -208 19 0 20 7
20 95 l0 95 58 0 57 0 48 -95 c36 -70 54 -95 68 -95 10 0 19 3 19 8 0 4 -21
45 -46 92 -42 78 -44 86 -28 95 48 27 74 63 74 105 0 94 -53 130 -194 130 -45
0 -86 -3 -89 -7z m221 -53 c16 -15 22 -32 22 -65 0 -61 -26 -77 -131 -83 l-79
-5 0 87 0 86 83 0 c70 0 87 -3 105 -20z"/>
<path d="M7150 226 l0 -216 109 0 c123 0 150 12 171 76 15 44 6 81 -27 116
l-26 27 22 18 c27 23 38 83 21 123 -19 47 -61 63 -172 68 l-98 4 0 -216z m220
154 c28 -28 27 -90 -1 -116 -17 -15 -36 -19 -103 -19 l-81 0 -3 78 -3 77 86 0
c72 0 88 -3 105 -20z m-17 -182 c53 -28 64 -92 22 -133 -22 -23 -32 -25 -110
-25 l-85 0 0 85 0 85 76 0 c41 0 85 -5 97 -12z"/>
<path d="M7640 225 l0 -215 130 0 c109 0 130 2 130 15 0 12 -19 15 -115 15
l-116 0 3 83 3 82 98 3 c72 2 97 6 94 15 -2 8 -36 13 -100 15 l-97 3 0 79 0
80 116 0 c105 0 115 2 112 18 -3 15 -19 17 -131 20 l-127 3 0 -216z"/>
<path d="M8035 430 c-13 -21 8 -30 66 -30 l59 0 0 -195 c0 -188 1 -195 20
-195 19 0 20 7 20 195 l0 194 63 3 c47 2 62 7 62 18 0 12 -24 15 -142 18 -89
2 -144 -1 -148 -8z"/>
<path d="M8450 420 c0 -18 6 -20 60 -20 l60 0 0 -195 c0 -188 1 -195 20 -195
19 0 20 7 20 195 l0 194 63 3 c47 2 62 7 62 18 0 13 -24 15 -142 18 -138 2
-143 2 -143 -18z"/>
<path d="M8907 434 c-4 -4 -7 -101 -7 -216 l0 -208 136 0 c104 0 135 3 132 13
-3 8 -38 13 -116 15 l-112 3 0 84 0 85 95 0 c78 0 95 3 95 15 0 12 -17 15 -95
15 l-95 0 0 80 0 79 113 3 c92 2 112 6 112 18 0 12 -22 15 -126 18 -69 1 -128
-1 -132 -4z"/>
<path d="M9357 433 c-4 -3 -7 -100 -7 -215 0 -201 1 -208 20 -208 19 0 20 7
20 95 l0 96 57 -3 56 -3 49 -92 c37 -70 55 -93 70 -93 11 0 18 3 16 8 -2 4
-22 44 -46 89 -23 46 -42 84 -42 87 0 2 15 13 34 24 60 36 73 134 22 181 -12
12 -38 26 -57 31 -38 11 -182 14 -192 3z m220 -55 c25 -23 31 -74 13 -108 -13
-24 -69 -40 -142 -40 l-58 0 0 85 0 85 82 0 c70 0 85 -3 105 -22z"/>
<path d="M10077 433 c-4 -3 -7 -100 -7 -215 l0 -208 136 0 c104 0 135 3 132
13 -3 8 -38 13 -116 15 l-112 3 0 199 c0 160 -3 200 -13 200 -8 0 -17 -3 -20
-7z"/>
<path d="M10507 433 c-4 -3 -7 -100 -7 -215 0 -201 1 -208 20 -208 19 0 20 7
20 215 0 173 -3 215 -13 215 -8 0 -17 -3 -20 -7z"/>
<path d="M10760 225 c0 -184 2 -215 15 -215 12 0 15 17 15 95 l0 95 100 0 c82
0 100 3 100 15 0 12 -18 15 -100 15 l-100 0 0 85 0 85 115 0 c108 0 115 1 115
20 0 19 -7 20 -130 20 l-130 0 0 -215z"/>
<path d="M11197 433 c-4 -3 -7 -100 -7 -215 l0 -208 130 0 c109 0 130 2 130
15 0 12 -19 15 -110 15 l-110 0 0 85 0 85 95 0 c78 0 95 3 95 15 0 12 -17 15
-95 15 l-95 0 0 80 0 80 110 0 c103 0 110 1 110 20 0 19 -7 20 -123 20 -68 0
-127 -3 -130 -7z"/>
</g>
</svg>
